# xmcd CD database file generated by Grip 2.95
# 
# Track frame offsets:
#       150
#       18517
#       34262
#       43827
#       57627
#       75172
#       93170
#       106675
#       121472
# 
# Disc length: 1832 seconds
# 
# Revision: 3
# Processed by: cddbd v1.4b41PL1 Copyright (c) Steve Scherf et al.
# Submitted via: Grip 2.95
# 
DISCID=69072609
DTITLE=Robert Cage - Can see what you' re doing
DYEAR=1900
DGENRE=
TTITLE0=get outta here
TTITLE1=liza jane
TTITLE2=easy rider
TTITLE3=instrumental #5
TTITLE4=little eddie blues
TTITLE5=bundle up and go
TTITLE6=who's been fooling you
TTITLE7=how to get your rolling done
TTITLE8=goodnight irene
EXTD=
EXTT0=
EXTT1=
EXTT2=
EXTT3=
EXTT4=
EXTT5=
EXTT6=
EXTT7=
EXTT8=
PLAYORDER=
